[img]http://img708.imageshack.us/img708/333/tacticakv.jpg[/img]
[code]
Tactical.Force.2011.BDRip.XVID.AC3.HQ.Hive-CM8


Thx Hive


CM8 Doing It Right The First Time 

Source: Bluray

Video: 720x400 @bitrate 2000 2pass
Audio: English DTS to AC3 5.1 @448
Sample: yes included

 
http://www.imdb.com/title/tt1458915/


General
Complete name                    : Tactical.Force.2011.BDRip.XVID.AC3.HQ.Hive-CM8.avi
Format                           : AVI
Format/Info                      : Audio Video Interleave
File size                        : 1.52 GiB
Duration                         : 1h 28mn
Overall bit rate                 : 2 457 Kbps
Writing application              : Nandub v1.0rc2
Writing library                  : Nandub build 1853/release

Video
ID                               : 0
Format                           : MPEG-4 Visual
Format profile                   : Advanced Simple@L5
Format settings, BVOP            : 2
Format settings, QPel            : Yes
Format settings, GMC             : No warppoints
Format settings, Matrix          : Default (H.263)
Muxing mode                      : Packed bitstream
Codec ID                         : XVID
Codec ID/Hint                    : XviD
Duration                         : 1h 28mn
Bit rate                         : 2 000 Kbps
Width                            : 720 pixels
Height                           : 400 pixels
Display aspect ratio             : 16:9
Frame rate                       : 23.976 fps
Color space                      : YUV
Chroma subsampling               : 4:2:0
Bit depth                        : 8 bits
Scan type                        : Progressive
Compression mode                 : Lossy
Bits/(Pixel*Frame)               : 0.290
Stream size                      : 1.23 GiB (81%)
Writing library                  : XviD 1.2.1 (UTC 2008-12-04)

Audio
ID                               : 1
Format                           : AC-3
Format/Info                      : Audio Coding 3
Mode extension                   : CM (complete main)
Codec ID                         : 2000
Duration                         : 1h 28mn
Bit rate mode                    : Constant
Bit rate                         : 448 Kbps
Channel(s)                       : 6 channels
Channel positions                : Front: L C R, Side: L R, LFE
Sampling rate                    : 48.0 KHz
Bit depth                        : 16 bits
Compression mode                 : Lossy
Stream size                      : 283 MiB (18%)
Alignment                        : Split accross interleaves
Interleave, duration             : 42 ms (1.00 video frame)
Interleave, preload duration     : 500 ms

Cast:
Michael Jai White	... Hunt
Steve Austin	... Tate
Michael Shanks	... Demetrius
Lexa Doig	... Jannard
Darren Shahlavi	... Storato

Plot:
A training exercise for the LAPD SWAT Team goes terribly wrong when they find 
themselves pitted against two rival gangs while trapped in an abandoned Hangar, armed with nothing but blanks. 
[/code]
Screens:
[img]http://img851.imageshack.us/img851/9129/13816629.png[/img]
[img]http://img14.imageshack.us/img14/9996/25479927.png[/img]
[img]http://img641.imageshack.us/img641/8624/71540725.png[/img]
[img]http://img6.imageshack.us/img6/4879/69863968.png[/img]
[img]http://img695.imageshack.us/img695/2544/27255579.png[/img]